<svg preserveAspectRatio="none" width="100%" height="100%" overflow="visible" style="display: block;" viewBox="0 0 18.6 18.6" fill="none" xmlns="http://www.w3.org/2000/svg">
<path id="Fill 375" fill-rule="evenodd" clip-rule="evenodd" d="M13.4702 10.0058C12.6814 11.18 10.6945 13.9128 9.3 13.9128C7.90548 13.9128 5.91862 11.18 5.12979 10.0058C4.90849 9.67868 4.99625 9.23323 5.32342 9.01385C5.6544 8.79256 6.09794 8.88126 6.31637 9.20748C7.07277 10.333 7.94649 11.3803 8.58462 11.9765V5.40259C8.58462 5.00769 8.90511 4.6872 9.3 4.6872C9.69489 4.6872 10.0154 5.00769 10.0154 5.40259V11.9832C10.6468 11.3889 11.5234 10.3378 12.2836 9.20748C12.503 8.88031 12.9475 8.79256 13.2766 9.01385C13.6038 9.23323 13.6906 9.67868 13.4702 10.0058ZM9.3 0C2.43422 0 0 2.43422 0 9.3C0 16.1658 2.43422 18.6 9.3 18.6C16.1658 18.6 18.6 16.1658 18.6 9.3C18.6 2.43422 16.1658 0 9.3 0Z" fill="var(--fill-0, #0048FF)"/>
</svg>
