<svg preserveAspectRatio="none" width="100%" height="100%" overflow="visible" style="display: block;" viewBox="0 0 20 20" fill="none" xmlns="http://www.w3.org/2000/svg">
<g id="Category">
<path id="Fill 1" opacity="0.4" d="M14.0755 0H17.4615C18.8637 0 20 1.14585 20 2.55996V5.97452C20 7.38864 18.8637 8.53449 17.4615 8.53449H14.0755C12.6732 8.53449 11.537 7.38864 11.537 5.97452V2.55996C11.537 1.14585 12.6732 0 14.0755 0" fill="var(--fill-0, white)"/>
<path id="Combined Shape" d="M5.9248 11.4658C7.3269 11.466 8.46285 12.6114 8.46289 14.0254V17.4404C8.46268 18.8533 7.3268 19.9998 5.9248 20H2.53809C1.13615 19.9998 0.000210316 18.8533 0 17.4404V14.0254C4.54606e-05 12.6115 1.13605 11.4661 2.53809 11.4658H5.9248ZM17.4619 11.4658C18.864 11.4661 20 12.6115 20 14.0254V17.4404C19.9998 18.8533 18.8639 19.9998 17.4619 20H14.0752C12.6732 19.9998 11.5373 18.8533 11.5371 17.4404V14.0254C11.5372 12.6114 12.6731 11.466 14.0752 11.4658H17.4619ZM5.9248 0C7.3268 0.000171152 8.46268 1.14575 8.46289 2.55957V5.97461C8.46285 7.38858 7.3269 8.53401 5.9248 8.53418H2.53809C1.13605 8.53394 4.52055e-05 7.38853 0 5.97461V2.55957C0.000210429 1.14579 1.13615 0.0002388 2.53809 0H5.9248Z" fill="var(--fill-0, white)"/>
</g>
</svg>
